<?xml version="1.0" encoding="UTF-8"?><svg id="a" xmlns="http://www.w3.org/2000/svg" viewBox="0 0 386.196 82.462"><defs><style>.c{fill:#fff;}.d{fill:#f5c51f;}</style></defs><g id="b"><path class="d" d="M85.217,24.054h-10.394c-1.722,0-3.21.118-4.462.354-1.253.236-2.321.63-3.207,1.18-.886.551-1.615,1.283-2.187,2.194-.573.913-1.044,2.061-1.415,3.445l-1.271,4.744c-.086.32-.375.542-.706.542h-4.891c-.235,0-.406-.223-.345-.45l4.578-17.086c.152-.568.222-1.136.211-1.706-.012-.569-.14-1.082-.386-1.541-.246-.458-.619-.829-1.116-1.113-.498-.284-1.177-.427-2.038-.427H10.291c-.534,0-1.013.142-1.436.426-.425.284-.688.615-.789.995L1.504,40.095c-.11.411-.027.75.25,1.018.275.269.681.403,1.214.403h5.535c.532,0,.989-.134,1.368-.401.379-.267.623-.605.733-1.014l5.602-20.907h13.223l-5.602,20.907c-.11.409-.026.748.251,1.014.276.268.682.401,1.215.401h5.474c.492,0,.958-.134,1.399-.401.44-.267.716-.605.825-1.014l5.602-20.907h12.424c.246,0,.406.126.483.378.076.252.081.504.013.755l-5.298,19.774c-.11.409-.026.748.251,1.014.276.268.682.401,1.215.401h14.453c.072,0,.139-.024.209-.029l5.537-.018c.985,0,1.986-.757,2.237-1.692l2.594-9.682c.118-.44.245-.724.382-.85.135-.125.367-.189.696-.189h10.086c.492,0,.958-.134,1.399-.401.441-.267.716-.606.826-1.015l.582-2.171c.101-.378.005-.708-.288-.991-.293-.283-.685-.425-1.178-.425Z"/><path class="d" d="M120.434,19.146h9.102c.492,0,.958-.132,1.398-.398.44-.264.714-.599.823-1.005l.589-2.198c.1-.374.003-.701-.291-.982-.294-.28-.686-.421-1.179-.421h-9.041l3.516-13.123c-.015-.251-.179-.479-.494-.682-.314-.203-.656-.306-1.025-.306h-5.289c-.533,0-1.012.142-1.436.423-.425.283-.686.612-.787.988l-3.403,12.7h-4.551c-.533,0-1.012.141-1.435.421-.423.28-.686.608-.786.982l-.589,2.198c-.109.406-.023.74.254,1.005.277.265.683.398,1.216.398h4.551l-4.225,15.768c-.155.578-.282,1.109-.385,1.599h-9.406l4.068-15.181c.372-1.387.516-2.538.433-3.453-.084-.915-.42-1.647-1.01-2.199-.591-.552-1.448-.946-2.574-1.183-1.126-.236-2.549-.355-4.272-.355h-23.248c-.533,0-1.008.126-1.423.377-.417.252-.679.583-.789.991l-.582,2.171c-.118.441-.05.795.208,1.062.256.268.671.401,1.245.401h22.941c.328,0,.526.063.595.19.068.126.052.378-.049.756l-5.335,19.91c-.11.41-.027.749.25,1.017.276.268.681.402,1.215.402l25.209.094c.015,0,.029-.006.044-.006.152.001.286.006.444.006h8.672c.492,0,.967-.165,1.424-.496.458-.33.737-.684.838-1.062l.582-2.171c.101-.378.005-.708-.288-.991-.293-.283-.686-.424-1.178-.424h-8.365c-.328,0-.527-.064-.595-.19-.069-.127-.043-.412.076-.857l4.335-16.178Z"/><path class="d" d="M158.805,18.765c.436-.253.711-.588.822-1.001l.635-2.144c.102-.381.01-.722-.279-1.024-.288-.301-.678-.453-1.169-.453h-20.05c-.534,0-1.013.142-1.436.426-.425.284-.688.615-.789.995l-6.573,24.53c-.11.411-.027.75.25,1.018.276.269.681.403,1.214.403h5.166c.492,0,.958-.134,1.399-.402.441-.268.716-.607.826-1.017l5.614-20.951h12.977c.493,0,.956-.127,1.395-.381Z"/><path class="d" d="M167.499,6.107h5.874c.843,0,1.71-.684,1.936-1.527l.894-3.054c.226-.843-.274-1.527-1.118-1.527h-5.874c-.843,0-1.71.684-1.936,1.527l-.894,3.054c-.226.843.274,1.527,1.118,1.527Z"/><path class="d" d="M225.024.528c-.278-.33-.662-.495-1.15-.495h-5.191c-.53,0-1.012.165-1.446.495-.435.33-.702.683-.803,1.06l-9.166,34.209c-.113.423-.496.717-.934.717h-4.742c-.312,0-.604-.15-.786-.404l-5.818-8.119c-.196-.273-.136-.653.135-.853l14.463-10.674c.354-.252.582-.569.684-.948.093-.346.014-.662-.238-.947-.253-.284-.666-.426-1.24-.426h-5.043c-.206,0-.466.055-.782.165-.317.111-.574.228-.771.354l-10.326,7.691c-.278.207-.673.143-.871-.141l-5.237-7.503c-.123-.157-.322-.291-.6-.401-.278-.11-.52-.165-.725-.165h-6.827c-.574,0-1.073.142-1.497.425-.424.284-.684.6-.777.946-.085.316-.021.615.19.898l8.138,11.42c.196.276.133.658-.141.856l-10.86,7.824h-5.88l5.551-20.718c.101-.377.013-.731-.265-1.062-.278-.331-.662-.496-1.15-.496h-5.191c-.53,0-1.012.165-1.447.496-.435.33-.702.684-.803,1.062l-6.512,24.305c-.11.409-.028.748.247,1.014.274.268.676.401,1.206.401h5.191c.025,0,.049-.01.074-.01.027,0,.046.01.073.01h11.255c.205,0,.465-.055.782-.165.316-.11.549-.213.697-.307l10.856-7.656c.284-.2.678-.125.869.165l4.846,7.396c.081.158.27.291.569.401.298.111.549.165.755.165h18.374c.488,0,.952-.134,1.39-.401.438-.267.712-.605.822-1.014L225.289,1.59c.101-.378.013-.731-.265-1.062Z"/><path class="d" d="M271.243,24.054h-10.394c-1.722,0-3.209.118-4.462.354-1.253.236-2.322.63-3.207,1.18-.886.551-1.615,1.283-2.187,2.194-.573.913-1.045,2.061-1.415,3.445l-1.329,4.959c-.052.193-.227.327-.426.327h-4.242c-.291,0-.502-.276-.426-.557l3.971-14.64c.371-1.384.513-2.532.427-3.445-.086-.912-.426-1.644-1.022-2.194-.596-.55-1.46-.944-2.594-1.18-1.134-.236-2.567-.354-4.298-.354l-11.735-.047c-.533,0-1.013.141-1.436.424-.425.283-.687.614-.788.991l-.594,2.218c-.11.409-.027.748.251,1.014.276.268.682.401,1.215.401h11.439c.328,0,.526.063.596.189.068.126.043.409-.075.849l-5.336,19.916c-.11.409-.025.748.256,1.014.278.268.687.401,1.223.401h5.142s.007-.001.01-.001l14.102-.046c.985,0,1.987-.758,2.237-1.692l2.594-9.681c.118-.44.245-.724.382-.85.135-.125.367-.189.696-.189h10.087c.491,0,.958-.134,1.399-.401.44-.267.716-.606.826-1.015l.582-2.171c.101-.378.004-.708-.288-.991-.293-.283-.686-.425-1.178-.425Z"/><path class="d" d="M291.83,36.513h-8.241l4.068-15.181c.372-1.387.515-2.538.433-3.453-.083-.915-.419-1.647-1.01-2.199-.59-.552-1.448-.946-2.573-1.183-1.127-.236-2.55-.355-4.272-.355h-23.249c-.533,0-1.008.126-1.423.377-.417.252-.679.583-.788.991l-.582,2.171c-.118.441-.05.795.207,1.062.257.268.671.401,1.245.401h22.941c.328,0,.526.063.595.19.068.126.053.378-.049.756l-5.335,19.91c-.11.41-.027.749.25,1.017.276.268.681.402,1.214.402l15.228.094c.492,0,.958-.134,1.399-.401.441-.267.716-.605.825-1.014l.582-2.171c.101-.378.005-.708-.288-.991-.294-.283-.686-.424-1.178-.424Z"/><path class="d" d="M385.925,14.703c-.248-.299-.659-.449-1.233-.449h-4.792c-1.248,0-2.562.343-3.782.988l-19.768,10.444,6.517-24.094c.101-.378.012-.731-.269-1.063-.28-.331-.666-.496-1.159-.496h-5.227c-.533,0-1.019.165-1.455.495-.438.331-.706.684-.807,1.062l-3.364,12.553h-8.273c-.369,0-.761.087-1.177.259-.416.173-.706.418-.872.731l.074-.047-12.6,17.414-1.373-17.367c-.015-.252-.18-.479-.493-.684-.315-.204-.657-.307-1.025-.307h-6.581c-.368,0-.763.094-1.182.283-.42.189-.714.441-.88.755l.013-.047-11.1,17.556-3.783-17.556h.061c-.015-.252-.18-.479-.493-.684-.315-.204-.657-.307-1.025-.307h-5.351c-.574,0-1.059.127-1.455.379-.396.253-.645.568-.746.946-.017.063-.034.127-.051.19-.017.063-.006.174.034.332l5.173,24.534h-.061c.014.252.179.48.493.684.315.205.656.307,1.025.307h5.966c.368,0,.765-.102,1.188-.307.424-.204.715-.449.872-.731l-.013.047,11.463-18.217,1.515,18.217c.014.252.179.48.493.684.315.205.657.307,1.025.307h5.72c.369,0,.765-.102,1.189-.307.424-.204.714-.449.872-.731l-.074.047,14.884-20.935c.198-.279.519-.444.861-.444h3.698c.326,0,.564.31.48.625l-5.447,20.329c-.11.409-.027.748.251,1.014.276.268.682.401,1.215.401h5.166c.492,0,.957-.125,1.393-.378.437-.251.709-.582.819-.991l1.746-6.516c.08-.299.279-.552.551-.7l5.127-2.788c.459-.25,1.03-.152,1.379.237l9.134,10.206c.529.591,1.285.929,2.079.929h7.418c1.177,0,1.801-1.391,1.018-2.27l-11.995-13.463,16.047-8.93-.074.047c.691-.283,1.109-.693,1.252-1.228.093-.346.014-.669-.233-.968Z"/><path class="c" d="M10.291,75.577l-2.874-6.281h-2.596v6.281H1.576v-15.992h5.725c3.685,0,5.98,1.646,5.98,4.89,0,2.156-.997,3.569-2.735,4.288l3.314,6.814h-3.569ZM7,66.562c1.923,0,3.036-.417,3.036-2.086s-1.113-2.132-3.036-2.132h-2.179v4.219h2.179Z"/><path class="c" d="M24.153,73.815c-.811,1.414-2.155,1.971-4.241,1.971-3.477,0-5.146-2.249-5.146-5.238v-1.576c0-3.5,1.762-5.192,4.775-5.192,3.268,0,4.775,1.901,4.775,5.423v1.321h-6.606c.023,1.6.533,2.758,2.179,2.758,1.229,0,1.623-.37,2.063-.996l2.202,1.529ZM17.71,68.415h3.639c-.07-1.506-.672-2.132-1.785-2.132-1.182,0-1.738.811-1.854,2.132Z"/><path class="c" d="M26.45,59.585h2.967v11.611c0,1.252.371,1.831,1.623,1.831v2.55c-3.129,0-4.589-.812-4.589-3.709v-12.283Z"/><path class="c" d="M33.288,59.585h3.198v2.874h-3.198v-2.874ZM33.404,63.989h2.967v11.588h-2.967v-11.588Z"/><path class="c" d="M42.792,68.624h2.294v-.673c0-1.297-.394-1.714-2.062-1.714-1.136,0-1.692.162-2.179.927l-2.086-1.46c.858-1.414,2.156-1.924,4.543-1.924,2.99,0,4.682.881,4.682,4.195v7.603h-2.897v-1.02c-.463.788-1.159,1.229-2.503,1.229-2.411,0-4.08-1.275-4.08-3.64,0-2.457,1.854-3.522,4.288-3.522ZM45.086,70.803h-1.947c-1.205,0-1.738.394-1.738,1.298,0,.881.672,1.298,1.692,1.298,1.344,0,1.993-.579,1.993-2.155v-.44Z"/><path class="c" d="M53.154,64.707c.625-.672,1.506-.927,2.503-.927,2.781,0,4.566,1.808,4.566,5.285v1.391c0,3.175-1.507,5.331-4.566,5.331-1.136,0-1.947-.302-2.503-.904v.695h-2.805v-15.992h2.805v5.122ZM57.279,70.362v-1.205c0-1.854-.603-2.874-2.063-2.874s-2.062,1.02-2.062,2.874v1.205c0,1.669.51,2.92,2.062,2.92,1.6,0,2.063-1.251,2.063-2.92Z"/><path class="c" d="M62.171,59.585h2.967v11.611c0,1.252.371,1.831,1.623,1.831v2.55c-3.129,0-4.589-.812-4.589-3.709v-12.283Z"/><path class="c" d="M77.748,73.815c-.811,1.414-2.155,1.971-4.241,1.971-3.477,0-5.146-2.249-5.146-5.238v-1.576c0-3.5,1.762-5.192,4.775-5.192,3.268,0,4.775,1.901,4.775,5.423v1.321h-6.606c.023,1.6.533,2.758,2.179,2.758,1.229,0,1.623-.37,2.063-.996l2.202,1.529ZM71.304,68.415h3.639c-.07-1.506-.672-2.132-1.785-2.132-1.182,0-1.739.811-1.854,2.132Z"/><path class="c" d="M93.766,68.299l4.45-8.714h3.083v15.992h-3.106v-9.92l-3.477,7.046h-1.97l-3.431-6.976v9.85h-3.083v-15.992h3.036l4.497,8.714Z"/><path class="c" d="M113.864,75.577h-2.897v-.974c-.487.788-1.113,1.183-2.643,1.183-2.341,0-4.265-1.159-4.265-4.566v-7.231h2.967v6.791c0,1.831.649,2.457,1.877,2.457,1.368,0,2.017-.835,2.017-2.434v-6.814h2.943v11.588Z"/><path class="c" d="M116.253,59.585h2.967v11.611c0,1.252.371,1.831,1.623,1.831v2.55c-3.129,0-4.589-.812-4.589-3.709v-12.283Z"/><path class="c" d="M122.001,63.989h1.483v-2.55h2.943v2.55h2.271v2.503h-2.271v4.844c0,1.158.232,1.646,1.321,1.646h.95v2.596h-1.251c-2.805,0-3.963-.788-3.963-3.778v-5.307h-1.483v-2.503Z"/><path class="c" d="M130.764,59.585h3.198v2.874h-3.198v-2.874ZM130.88,63.989h2.967v11.588h-2.967v-11.588Z"/><path class="c" d="M146.595,70.548c0,3.013-1.53,5.238-4.52,5.238-1.205,0-2.017-.232-2.55-.673v4.868h-2.967v-15.993h2.967v.765c.557-.626,1.391-.974,2.572-.974,2.689,0,4.497,1.877,4.497,5.192v1.576ZM143.628,70.362v-1.205c0-1.854-.579-2.874-2.04-2.874-1.413,0-2.062.927-2.062,2.618v1.461c0,1.669.394,2.92,2.062,2.92,1.6,0,2.04-1.251,2.04-2.92Z"/><path class="c" d="M158.348,75.577h-2.897v-.974c-.486.788-1.112,1.183-2.642,1.183-2.342,0-4.266-1.159-4.266-4.566v-7.231h2.967v6.791c0,1.831.649,2.457,1.878,2.457,1.367,0,2.017-.835,2.017-2.434v-6.814h2.943v11.588Z"/><path class="c" d="M167.017,67.21c-.301-.44-.718-.88-1.46-.88-1.112,0-1.854.811-1.854,2.433v6.814h-2.967v-11.588h2.897v.973c.395-.579,1.159-1.182,2.526-1.182,1.391,0,2.434.603,3.129,1.808l-2.271,1.622Z"/><path class="c" d="M180.277,70.548c0,3.013-1.529,5.238-4.52,5.238-1.205,0-2.017-.232-2.55-.673v4.868h-2.967v-15.993h2.967v.765c.557-.626,1.392-.974,2.573-.974,2.688,0,4.496,1.877,4.496,5.192v1.576ZM177.31,70.362v-1.205c0-1.854-.579-2.874-2.039-2.874-1.414,0-2.063.927-2.063,2.618v1.461c0,1.669.395,2.92,2.063,2.92,1.599,0,2.039-1.251,2.039-2.92Z"/><path class="c" d="M191.821,70.455c0,3.175-1.506,5.331-5.006,5.331-3.361,0-5.007-2.086-5.007-5.331v-1.391c0-3.477,1.831-5.285,5.007-5.285,3.222,0,5.006,1.808,5.006,5.285v1.391ZM188.877,70.362v-1.205c0-1.854-.603-2.874-2.062-2.874s-2.063,1.02-2.063,2.874v1.205c0,1.669.418,2.92,2.063,2.92,1.622,0,2.062-1.251,2.062-2.92Z"/><path class="c" d="M200.144,67.257c-.51-.603-1.021-.927-2.271-.927-.766,0-1.461.232-1.461.904,0,.695.626.95,1.854,1.136,2.852.44,4.288,1.529,4.288,3.824,0,2.225-1.553,3.593-4.543,3.593-2.364,0-3.801-.58-4.798-1.924l2.271-1.623c.464.626,1.043.997,2.48.997,1.02,0,1.646-.348,1.646-.95,0-.719-.51-.95-1.971-1.183-2.41-.394-4.172-1.414-4.172-3.755,0-2.201,1.576-3.569,4.474-3.569,1.9,0,3.477.44,4.381,1.924l-2.179,1.553Z"/><path class="c" d="M213.519,73.815c-.812,1.414-2.156,1.971-4.242,1.971-3.477,0-5.146-2.249-5.146-5.238v-1.576c0-3.5,1.762-5.192,4.775-5.192,3.268,0,4.774,1.901,4.774,5.423v1.321h-6.605c.022,1.6.532,2.758,2.179,2.758,1.228,0,1.622-.37,2.062-.996l2.202,1.529ZM207.076,68.415h3.639c-.069-1.506-.672-2.132-1.785-2.132-1.182,0-1.738.811-1.854,2.132Z"/><path class="c" d="M229.538,68.299l4.45-8.714h3.082v15.992h-3.105v-9.92l-3.477,7.046h-1.971l-3.43-6.976v9.85h-3.083v-15.992h3.036l4.497,8.714Z"/><path class="c" d="M249.426,70.455c0,3.175-1.506,5.331-5.006,5.331-3.361,0-5.007-2.086-5.007-5.331v-1.391c0-3.477,1.831-5.285,5.007-5.285,3.222,0,5.006,1.808,5.006,5.285v1.391ZM246.483,70.362v-1.205c0-1.854-.603-2.874-2.062-2.874s-2.063,1.02-2.063,2.874v1.205c0,1.669.418,2.92,2.063,2.92,1.622,0,2.062-1.251,2.062-2.92Z"/><path class="c" d="M258.049,59.585h2.943v15.992h-2.943v-.672c-.603.556-1.391.881-2.479.881-3.037,0-4.59-2.156-4.59-5.238v-1.576c0-3.384,1.831-5.192,4.59-5.192.996,0,1.831.255,2.479.812v-5.006ZM258.049,70.362v-1.461c0-1.691-.672-2.618-2.062-2.618-1.46,0-2.063,1.02-2.063,2.874v1.205c0,1.669.464,2.92,2.063,2.92,1.669,0,2.062-1.251,2.062-2.92Z"/><path class="c" d="M272.353,73.815c-.812,1.414-2.156,1.971-4.242,1.971-3.477,0-5.146-2.249-5.146-5.238v-1.576c0-3.5,1.762-5.192,4.775-5.192,3.268,0,4.774,1.901,4.774,5.423v1.321h-6.605c.022,1.6.532,2.758,2.179,2.758,1.228,0,1.622-.37,2.062-.996l2.202,1.529ZM265.91,68.415h3.639c-.069-1.506-.672-2.132-1.785-2.132-1.182,0-1.738.811-1.854,2.132Z"/><path class="c" d="M274.648,59.585h2.967v11.611c0,1.252.371,1.831,1.623,1.831v2.55c-3.129,0-4.59-.812-4.59-3.709v-12.283Z"/><path class="c" d="M295.835,64.545c-.302-1.507-1.183-2.434-2.759-2.434-1.877,0-2.874,1.274-2.874,4.334v2.271c0,2.967.997,4.334,2.874,4.334,1.623,0,2.411-.812,2.759-2.434h3.082c-.532,3.593-2.549,5.169-5.841,5.169-3.592,0-6.118-2.179-6.118-7.069v-2.271c0-4.937,2.526-7.069,6.118-7.069,3.176,0,5.331,1.669,5.864,5.169h-3.105Z"/><path class="c" d="M310.416,70.455c0,3.175-1.506,5.331-5.006,5.331-3.361,0-5.007-2.086-5.007-5.331v-1.391c0-3.477,1.831-5.285,5.007-5.285,3.222,0,5.006,1.808,5.006,5.285v1.391ZM307.472,70.362v-1.205c0-1.854-.603-2.874-2.062-2.874s-2.062,1.02-2.062,2.874v1.205c0,1.669.417,2.92,2.062,2.92,1.622,0,2.062-1.251,2.062-2.92Z"/><path class="c" d="M312.387,63.989h2.897v.973c.44-.579,1.368-1.182,2.666-1.182,2.341,0,4.241,1.113,4.241,4.542v7.255h-2.943v-6.791c0-1.808-.649-2.457-1.854-2.457-1.367,0-2.04.904-2.04,2.433v6.814h-2.967v-11.588Z"/><path class="c" d="M323.722,63.989h1.483v-2.55h2.944v2.55h2.271v2.503h-2.271v4.844c0,1.158.231,1.646,1.32,1.646h.951v2.596h-1.252c-2.805,0-3.964-.788-3.964-3.778v-5.307h-1.483v-2.503Z"/><path class="c" d="M338.534,67.21c-.301-.44-.718-.88-1.46-.88-1.112,0-1.854.811-1.854,2.433v6.814h-2.967v-11.588h2.897v.973c.395-.579,1.159-1.182,2.526-1.182,1.391,0,2.434.603,3.129,1.808l-2.271,1.622Z"/><path class="c" d="M351.191,70.455c0,3.175-1.506,5.331-5.006,5.331-3.361,0-5.007-2.086-5.007-5.331v-1.391c0-3.477,1.831-5.285,5.007-5.285,3.222,0,5.006,1.808,5.006,5.285v1.391ZM348.248,70.362v-1.205c0-1.854-.603-2.874-2.062-2.874s-2.062,1.02-2.062,2.874v1.205c0,1.669.417,2.92,2.062,2.92,1.622,0,2.062-1.251,2.062-2.92Z"/><path class="c" d="M353.163,59.585h2.967v11.611c0,1.252.371,1.831,1.623,1.831v2.55c-3.129,0-4.59-.812-4.59-3.709v-12.283Z"/><path class="c" d="M359.769,59.585h2.967v11.611c0,1.252.371,1.831,1.623,1.831v2.55c-3.129,0-4.59-.812-4.59-3.709v-12.283Z"/><path class="c" d="M375.345,73.815c-.812,1.414-2.156,1.971-4.242,1.971-3.477,0-5.146-2.249-5.146-5.238v-1.576c0-3.5,1.762-5.192,4.775-5.192,3.268,0,4.774,1.901,4.774,5.423v1.321h-6.605c.022,1.6.532,2.758,2.179,2.758,1.228,0,1.622-.37,2.062-.996l2.202,1.529ZM368.902,68.415h3.639c-.069-1.506-.672-2.132-1.785-2.132-1.182,0-1.738.811-1.854,2.132Z"/><path class="c" d="M383.922,67.21c-.301-.44-.718-.88-1.46-.88-1.112,0-1.854.811-1.854,2.433v6.814h-2.967v-11.588h2.897v.973c.395-.579,1.159-1.182,2.526-1.182,1.391,0,2.434.603,3.129,1.808l-2.271,1.622Z"/></g></svg>